<svg xmlns="http://www.w3.org/2000/svg" width="1381pt" height="1070pt" viewBox="0 0 1381 1070"><g fill="#0093dd"><path d="M268.54 0H452.7c5.97 1.27 11.02 6.05 12.35 12.04 1.51 5.55-.45 11.14-1.64 16.54-11.02 47.47-22.17 94.91-33.11 142.4-1.24.69-2.48 1.37-3.75 2l-.76.33c-.16.07-.48.21-.63.28-2.2.96-4.38 1.93-6.57 2.9-.36.17-1.08.52-1.45.7l-.45.2c-.08.04-.24.11-.32.14-2.27.95-4.54 1.9-6.77 2.94-.06.03-.19.09-.25.12l-1.7.79c-.07.04-.23.12-.31.15l-1.77.84c-.36.2-1.08.59-1.44.79l-.46.21c-.07.04-.23.11-.3.14-2.96 1.24-5.84 2.61-8.74 3.95-.08.04-.24.11-.32.15l-.44.22c-.37.18-1.1.54-1.46.72l-1.81.84c-.08.03-.23.11-.31.14l-1.71.81c-.08.04-.25.12-.34.16l-1.65.79c-.08.04-.23.11-.31.15l-1.68.79c-.08.04-.25.12-.34.16l-1.2.55c-.52.27-1.57.82-2.1 1.09-1.05.45-2.09.91-3.12 1.39-.15.08-.46.22-.61.3-1.2.57-2.4 1.15-3.59 1.74-.07.03-.19.09-.26.13-1.89 1.02-3.81 1.97-5.75 2.88-.08.04-.23.12-.3.15l-.44.23c-.35.19-1.04.58-1.38.78-2.44 1.18-4.85 2.41-7.27 3.6-1.29.12-2.72.48-3.31 1.77-4.25 1.96-8.38 4.17-12.51 6.37-.34.18-1.01.56-1.34.75l-.41.25c-.09.06-.28.17-.37.22l-.42.25c-.37.17-1.1.5-1.47.66l-1.75.92c-.07.04-.23.12-.31.17l-1.61.86-.27.15c-3.55 1.91-7.1 3.8-10.65 5.71-.16.08-.47.25-.63.33-4.74 2.49-9.37 5.16-14.05 7.74-6.85 3.6-13.52 7.54-20.11 11.56 6.82-2.77 13.31-6.33 19.81-9.78 7.11-3.67 14.37-7.04 21.56-10.56.06-.04.2-.1.27-.14l1.7-.83c.09-.04.27-.12.36-.17l1.69-.81c.07-.04.23-.11.31-.15l1.66-.79c.07-.03.21-.1.28-.13 3.5-1.64 7.03-3.23 10.53-4.87.16-.07.47-.22.62-.29 3.52-1.62 7.04-3.25 10.57-4.86.07-.03.2-.09.27-.12l1.69-.76c.08-.04.24-.11.32-.14l1.25-.55c.54-.26 1.61-.77 2.14-1.02 1.09-.44 2.16-.89 3.24-1.35.1-.05.3-.14.4-.18 1.08-.48 2.17-.96 3.26-1.42.52-.26 1.56-.77 2.08-1.02 3.54-1.35 6.95-3.01 10.45-4.47.34-.18 1.04-.55 1.39-.73l.45-.18c.07-.04.23-.1.31-.13.65-.25 1.95-.74 2.6-.99.09-.03.26-.1.35-.14 1.11-.46 2.23-.93 3.35-1.4.54-.24 1.6-.73 2.13-.97 1.66-.61 3.29-1.28 4.93-1.95.53-.25 1.6-.76 2.14-1.01l1.22-.42c.07-.03.21-.08.29-.1l1.24-.46c.54-.28 1.6-.83 2.13-1.11l1.42-.39c.36-.17 1.08-.52 1.45-.69l.44-.23c.09-.05.26-.14.35-.19l.36-.19 3.08-1.08 1.26-.46c.07-.03.23-.09.31-.12l1.3-.46c.51-.28 1.54-.82 2.06-1.1l.89.04c.51-.27 1.54-.81 2.05-1.08.97-.32 1.94-.65 2.92-.97.54-.26 1.61-.77 2.14-1.03l1.6-.56c.09.86.03 1.71-.17 2.55-8.58 36.62-17.08 73.27-25.62 109.9-.38 4.07-1.54 8-2.36 12-1.23 5.92.28 12.65 4.88 16.79 3.61 3.43 8.74 4.57 13.59 4.45 70.01-.01 140.02.01 210.04-.01 4.15.01 8.51-.23 12.41 1.49 5.05 2.07 8.72 6.92 9.56 12.3 1.11 6.15-1.44 12.11-2.56 18.07-22.98 98.67-45.95 197.34-68.94 296.01-2.19 10.55-10.61 19.45-20.96 22.36-4.74 1.32-9.71.88-14.57.95-90.47.03-180.93-.06-271.39.05-.26-2.99-.11-5.99-.14-8.98 24.86-5.56 49.81-13.94 70.14-29.76 16.36-12.5 28.61-30.41 33.72-50.4 16.74-72.03 33.56-144.05 50.3-216.08 1.62-6.85-.81-14.87-6.98-18.66-4.6-3.06-10.32-2.82-15.61-2.77-50.31 0-100.63.02-150.94 0-1.63.11-3.37-.32-4.91.28-28.62 24.67-55.82 51.06-80.38 79.8-24.44 28.28-46.29 58.94-63.71 92.05-20.4 38.9-34.63 81.95-35.17 126.19-.8 42.23 12.64 84.53 37.8 118.47 22.6 30.9 53.43 54.97 86.82 73.27 36.12 19.54 75.24 33.19 115.2 42.43-.09.77-.26 2.29-.34 3.06-3.69 15.15-7.1 30.36-10.67 45.54-26.23-3.54-52.2-9-77.74-15.91-35.5-9.86-70.25-23.09-102.15-41.66-32.65-18.95-62.46-43.88-83.57-75.43C9.12 763.35-2.13 719.69.97 677.01c2.76-43.17 18.03-84.64 38.8-122.27 19.26-34.75 43.3-66.68 69.84-96.19 35.88-39.96 76.51-75.41 119.24-107.84-12.53-.07-25.07.06-37.6-.06-6.12-.01-12.3-3.35-14.97-8.97-2.5-4.84-2.13-10.54-.69-15.63 23.62-101.32 47.18-202.67 70.82-303.99C248.88 11.29 257.92 2.67 268.54 0M1171.91 697.88c5.35-3.17 10.29-7.12 15.94-9.76-17.53 13.3-36 25.36-54.45 37.35-99.06 63.12-206.93 111.86-318.54 148.13-97.54 31.5-198.38 53.34-300.54 62.47.13-.8.39-2.39.51-3.18 2.57-10.43 4.89-20.91 7.37-31.35 58.16-2.35 116.12-9.09 173.34-19.79 87.61-16.35 173.53-41.43 256.54-73.83 76.38-29.97 150.32-66.38 219.83-110.04"/></g><path fill="#eb891b" d="M785.57 0h282.49c-.03 2.86.12 5.72-.17 8.57-15.78 3.47-31.33 8.34-45.85 15.49-14.4 6.92-27.63 16.61-37.78 29.02 57.99 1.43 116.09 7.79 172.29 22.49 41.69 11.03 82.52 26.65 119.07 49.78 31.89 20.15 60.46 46.6 79.55 79.39 14.7 24.8 23.26 52.99 25.83 81.66v31.34c-2.93 39.35-15.93 77.36-34.1 112.19-18.86 36.19-43.15 69.31-70.02 99.93-50.76 57.37-110.69 106.03-174.28 148.48-1.4.94-2.77 1.98-4.45 2.29.38-.69.9-1.27 1.54-1.73 45.68-34.46 88.66-72.76 126.28-115.95 26.53-30.66 50.44-63.81 68.94-99.96 18.55-36.3 31.64-76.02 33.41-116.97 1.17-26.82-2.78-53.96-12.43-79.05-13.04-34.87-36.68-65.13-65.33-88.61-30.66-25.31-66.56-43.56-103.74-57.2-57.67-20.86-118.71-30.98-179.74-35.13-12.47 53.49-24.91 106.99-37.38 160.49-4.56 20.1-9.71 40.09-13.44 60.35-.82 6.52 2.1 13.62 8 16.87 4.42 2.67 9.76 2.4 14.74 2.38q104.985-.015 209.97 0c5.01-.13 10.3 1.36 13.79 5.13 4.54 4.65 5.43 11.83 3.76 17.91-23.44 100.67-46.89 201.34-70.33 302.01-1.86 14.18-14.58 26.5-29.18 26.12-57.66 0-115.31.02-172.96-.01-5.09.09-10.41-1.67-13.79-5.61-4.07-4.53-4.91-11.16-3.46-16.9 21.94-94.21 43.9-188.41 65.83-282.62 1.62-6.87-.82-14.92-7.02-18.71-4.9-3.25-10.99-2.74-16.57-2.74-69.68 0-139.36 0-209.04-.01-4.99.14-10.24-1.26-13.77-4.95-4.58-4.52-5.65-11.59-4.07-17.64 18.03-77.44 36.09-154.87 54.1-232.32-109.02 15.67-216.04 44.61-318.61 84.65l-1.6.56c-.53.26-1.6.77-2.14 1.03-.98.32-1.95.65-2.92.97l-.88-.19c-.3.32-.88.95-1.17 1.27l-.89-.04c-.52.28-1.55.82-2.06 1.1l-1.3.46c-.08.03-.24.09-.31.12l-1.26.46-3.08 1.08-.36.19c-.09.05-.26.14-.35.19l-.44.23c-.37.17-1.09.52-1.45.69l-1.42.39c-.53.28-1.59.83-2.13 1.11l-1.24.46c-.08.02-.22.07-.29.1l-1.22.42c-.54.25-1.61.76-2.14 1.01-1.64.67-3.27 1.34-4.93 1.95l-.87-.22c-.31.29-.94.89-1.26 1.19-1.12.47-2.24.94-3.35 1.4-.09.04-.26.11-.35.14-.65.25-1.95.74-2.6.99-.08.03-.24.09-.31.13l-.45.18c-.35.18-1.05.55-1.39.73-3.5 1.46-6.91 3.12-10.45 4.47l-.87-.2c-.31.3-.91.91-1.21 1.22-1.09.46-2.18.94-3.26 1.42-.1.04-.3.13-.4.18-1.08.46-2.15.91-3.24 1.35l-.87-.2c-.32.3-.95.91-1.27 1.22l-1.25.55c-.08.03-.24.1-.32.14l-1.69.76c-.07.03-.2.09-.27.12-3.53 1.61-7.05 3.24-10.57 4.86-.15.07-.46.22-.62.29-3.5 1.64-7.03 3.23-10.53 4.87-.07.03-.21.1-.28.13l-1.66.79c-.08.04-.24.11-.31.15l-1.69.81c-.09.05-.27.13-.36.17l-1.7.83c-.07.04-.21.1-.27.14-7.19 3.52-14.45 6.89-21.56 10.56l-1.56.07c.46-.46 1.39-1.38 1.86-1.85 4.68-2.58 9.31-5.25 14.05-7.74.16-.08.47-.25.63-.33 3.55-1.91 7.1-3.8 10.65-5.71l.27-.15 1.61-.86c.08-.05.24-.13.31-.17l1.75-.92c.37-.16 1.1-.49 1.47-.66l.42-.25c.09-.05.28-.16.37-.22l.41-.25c.33-.19 1-.57 1.34-.75 4.13-2.2 8.26-4.41 12.51-6.37 1.5 1.08 3-.27 3.31-1.77 2.42-1.19 4.83-2.42 7.27-3.6.34-.2 1.03-.59 1.38-.78l.44-.23c.07-.03.22-.11.3-.15 1.94-.91 3.86-1.86 5.75-2.88.07-.04.19-.1.26-.13 1.19-.59 2.39-1.17 3.59-1.74.15-.08.46-.22.61-.3 1.03-.48 2.07-.94 3.12-1.39l.88.17c.31-.32.92-.94 1.22-1.26l1.2-.55c.09-.04.26-.12.34-.16l1.68-.79c.08-.04.23-.11.31-.15l1.65-.79c.09-.04.26-.12.34-.16l1.71-.81c.08-.03.23-.11.31-.14l1.81-.84c.36-.18 1.09-.54 1.46-.72l.44-.22c.08-.04.24-.11.32-.15 2.9-1.34 5.78-2.71 8.74-3.95.07-.03.23-.1.3-.14l.46-.21c.36-.2 1.08-.59 1.44-.79l1.77-.84c.08-.03.24-.11.31-.15l1.7-.79c.06-.03.19-.09.25-.12 2.23-1.04 4.5-1.99 6.77-2.94.08-.03.24-.1.32-.14l.45-.2c.37-.18 1.09-.53 1.45-.7 2.19-.97 4.37-1.94 6.57-2.9.15-.07.47-.21.63-.28l.76-.33c104.1-45.55 213.29-79.62 325.08-100.18 3.94-16.92 7.86-33.84 11.83-50.75 2.47-10.76 11.5-19.37 22.11-22.05"/><g fill="#68b92e"><path d="M409.35 180.59c.06-.03.19-.09.25-.12-.06.03-.19.09-.25.12M423.91 182.02c.54-.26 1.61-.77 2.14-1.03-.53.26-1.6.77-2.14 1.03M404.13 183.16c.36-.2 1.08-.59 1.44-.79-.36.2-1.08.59-1.44.79M418.94 184.07c.29-.32.87-.95 1.17-1.27l.88.19c-.51.27-1.54.81-2.05 1.08M415.99 185.13c.51-.28 1.54-.82 2.06-1.1-.52.28-1.55.82-2.06 1.1M414.38 185.71c.07-.03.23-.09.31-.12-.08.03-.24.09-.31.12M410.04 187.25l3.08-1.08zM394.31 187.61c.08-.04.24-.11.32-.15-.08.04-.24.11-.32.15M409.33 187.63c.09-.05.26-.14.35-.19-.09.05-.26.14-.35.19M407.44 188.55c.36-.17 1.08-.52 1.45-.69-.37.17-1.09.52-1.45.69M390.29 189.53c.08-.03.23-.11.31-.14-.08.03-.23.11-.31.14M386.28 191.44c.08-.04.23-.11.31-.15-.08.04-.23.11-.31.15M399 192.04c.53-.25 1.6-.76 2.14-1.01-.54.25-1.61.76-2.14 1.01M380.96 194.03c.53-.27 1.58-.82 2.1-1.09-.3.32-.91.94-1.22 1.26zM391.94 194.96c.32-.3.95-.9 1.26-1.19l.87.22c-.53.24-1.59.73-2.13.97M377.23 195.72c.15-.08.46-.22.61-.3-.15.08-.46.22-.61.3M385.33 197.62c.07-.04.23-.1.31-.13-.08.03-.24.09-.31.13M367.33 200.62c.07-.03.22-.11.3-.15-.08.04-.23.12-.3.15M370.96 204.02c.3-.31.9-.92 1.21-1.22l.87.2c-.52.25-1.56.76-2.08 1.02M354.93 207c.59-1.29 2.02-1.65 3.31-1.77-.31 1.5-1.81 2.85-3.31 1.77M361.92 207.99c.32-.31.95-.92 1.27-1.22l.87.2c-.53.25-1.6.76-2.14 1.02M358.39 209.56c.07-.03.2-.09.27-.12-.07.03-.2.09-.27.12M347.2 214.71c.16-.07.47-.22.62-.29-.15.07-.46.22-.62.29M336.35 216.59c.08-.05.24-.13.31-.17-.07.04-.23.12-.31.17M334.47 217.6l.27-.15zM336.39 219.71c.07-.03.21-.1.28-.13-.07.03-.21.1-.28.13M334.42 220.65c.07-.04.23-.11.31-.15-.08.04-.24.11-.31.15M330.4 222.6c.06-.04.2-.1.27-.14-.07.04-.21.1-.27.14M323.19 223.64c.16-.08.47-.25.63-.33-.16.08-.47.25-.63.33M289.03 242.94c6.59-4.02 13.26-7.96 20.11-11.56-.47.47-1.4 1.39-1.86 1.85l1.56-.07c-6.5 3.45-12.99 7.01-19.81 9.78M675.58 414.96c2.67-12.97 15-23.51 28.39-23.25 57.65 0 115.29-.01 172.94.01 6.04-.22 12.38 2.46 15.53 7.79 2.86 4.61 3.02 10.39 1.67 15.52-23.7 101.64-47.34 203.3-71.04 304.94-2.78 12.74-14.9 23.08-28.09 22.92-68.34.02-136.68 0-205.02.01-5.86.08-11.96-.55-17.53 1.68-8.88 3.4-16.14 11.15-18.4 20.46-10.64 45.49-21.16 91.01-31.83 136.5-2.48 10.44-4.8 20.92-7.37 31.35-8.42 37.13-17.25 74.19-25.81 111.3-2.05 13.51-14.13 25.16-28.03 25.28-57.97.06-115.94.02-173.91.02-5.11.09-10.45-1.69-13.83-5.66-4.06-4.55-4.88-11.2-3.4-16.95 8.95-38.37 17.82-76.75 26.84-115.1 3.57-15.18 6.98-30.39 10.67-45.54 10.98-48.17 22.38-96.24 33.52-144.37 2.57-12.94 14.66-23.6 28.01-23.55 71.03-.04 142.07 0 213.1-.02 10.36.2 20.14-6.15 25.2-15.01 2.31-3.91 3.2-8.42 4.21-12.79 21.4-91.84 42.78-183.69 64.18-275.54"/></g></svg>